<svg width="24px" height="24px" viewBox="0 0 24 24" fill="none" xmlns="http://www.w3.org/2000/svg">
<path d="M17.66 21.78H6.33999C5.24465 21.78 4.19417 21.3449 3.41964 20.5703C2.64512 19.7958 2.20999 18.7453 2.20999 17.65V6.33C2.20999 5.23465 2.64512 4.18417 3.41964 3.40965C4.19417 2.63512 5.24465 2.2 6.33999 2.2H17.66C18.7553 2.2 19.8058 2.63512 20.5803 3.40965C21.3549 4.18417 21.79 5.23465 21.79 6.33V17.65C21.79 18.1924 21.6832 18.7294 21.4756 19.2305C21.2681 19.7316 20.9638 20.1868 20.5803 20.5703C20.1968 20.9539 19.7415 21.2581 19.2405 21.4656C18.7394 21.6732 18.2024 21.78 17.66 21.78ZM6.33999 3.7C5.64247 3.7 4.97352 3.97709 4.4803 4.47031C3.98708 4.96353 3.70999 5.63248 3.70999 6.33V17.65C3.70999 18.3475 3.98708 19.0165 4.4803 19.5097C4.97352 20.0029 5.64247 20.28 6.33999 20.28H17.66C18.3575 20.28 19.0265 20.0029 19.5197 19.5097C20.0129 19.0165 20.29 18.3475 20.29 17.65V6.33C20.29 5.63248 20.0129 4.96353 19.5197 4.47031C19.0265 3.97709 18.3575 3.7 17.66 3.7H6.33999Z" fill="currentColor"/>
<path d="M8.19 12.94C7.61361 12.942 7.04962 12.7727 6.56954 12.4537C6.08947 12.1347 5.71493 11.6804 5.49345 11.1482C5.27196 10.6161 5.21349 10.0302 5.32545 9.46475C5.43741 8.89933 5.71477 8.3799 6.12234 7.97233C6.52991 7.56476 7.04934 7.2874 7.61476 7.17544C8.18017 7.06348 8.7661 7.12195 9.29824 7.34344C9.83038 7.56493 10.2848 7.93946 10.6037 8.41953C10.9227 8.89961 11.092 9.4636 11.09 10.04C11.09 10.4208 11.015 10.7979 10.8693 11.1498C10.7235 11.5016 10.5099 11.8213 10.2406 12.0906C9.97132 12.3599 9.65163 12.5735 9.29979 12.7192C8.94794 12.865 8.57084 12.94 8.19 12.94ZM8.19 8.62999C7.90903 8.62811 7.63391 8.71022 7.39993 8.86578C7.16594 9.02135 6.98377 9.24327 6.87679 9.50308C6.7698 9.76289 6.74287 10.0487 6.79947 10.324C6.85606 10.5992 6.99359 10.8512 7.19441 11.0477C7.39523 11.2442 7.65018 11.3763 7.92656 11.4269C8.20294 11.4775 8.48814 11.4444 8.74557 11.3318C9.003 11.2192 9.22092 11.0323 9.37138 10.795C9.52184 10.5577 9.59797 10.2809 9.59 9.99999C9.57965 9.63474 9.4279 9.28777 9.16673 9.0322C8.90557 8.77664 8.5554 8.63244 8.19 8.62999Z" fill="currentColor"/>
<path d="M16 12.94C15.4236 12.942 14.8596 12.7727 14.3795 12.4537C13.8995 12.1347 13.5249 11.6804 13.3034 11.1482C13.082 10.6161 13.0235 10.0302 13.1354 9.46475C13.2474 8.89933 13.5248 8.3799 13.9323 7.97233C14.3399 7.56476 14.8593 7.2874 15.4248 7.17544C15.9902 7.06348 16.5761 7.12195 17.1082 7.34344C17.6404 7.56493 18.0948 7.93946 18.4137 8.41953C18.7327 8.89961 18.902 9.4636 18.9 10.04C18.8974 10.8083 18.591 11.5444 18.0477 12.0877C17.5044 12.631 16.7683 12.9374 16 12.94ZM16 8.62999C15.7182 8.62411 15.4412 8.70279 15.2046 8.85589C14.968 9.00898 14.7827 9.22947 14.6726 9.48889C14.5625 9.74832 14.5327 10.0348 14.587 10.3113C14.6413 10.5879 14.7772 10.8418 14.9772 11.0403C15.1772 11.2389 15.4321 11.3729 15.709 11.4252C15.9859 11.4775 16.2722 11.4456 16.5308 11.3336C16.7894 11.2216 17.0085 11.0347 17.1599 10.797C17.3113 10.5593 17.3879 10.2817 17.38 9.99999C17.3698 9.63815 17.2208 9.29408 16.9639 9.03905C16.7071 8.78401 16.3619 8.63755 16 8.62999Z" fill="currentColor"/>
<path d="M16 17.42H8.19C7.99109 17.42 7.80032 17.341 7.65967 17.2003C7.51902 17.0597 7.44 16.8689 7.44 16.67C7.44 16.4711 7.51902 16.2803 7.65967 16.1397C7.80032 15.999 7.99109 15.92 8.19 15.92H16C16.1989 15.92 16.3897 15.999 16.5303 16.1397C16.671 16.2803 16.75 16.4711 16.75 16.67C16.75 16.8689 16.671 17.0597 16.5303 17.2003C16.3897 17.341 16.1989 17.42 16 17.42Z" fill="currentColor"/>
</svg>
