<svg
   xmlns:svg="http://www.w3.org/2000/svg"
   xmlns="http://www.w3.org/2000/svg"
   width="24px"
   height="24px"
   viewBox="0 0 24 24"
   class="iconify iconify--gis"
   preserveAspectRatio="xMidYMid meet"
   version="1.1"
   id="svg12">
  <defs
     id="defs16" />
  <path
     d="m 7.754196,2.94848 c -1.651948,0 -3.0089912,1.357042 -3.0089912,3.008991 0,0.963836 0.4639361,1.825294 1.1772228,2.377462 L 3.514036,13.311397 A 2.961998,2.961998 0 0 0 2.9587512,13.257931 C 1.307043,13.25817 -0.05,14.615213 -0.05,16.267162 c 0,1.651948 1.357043,3.008991 3.008991,3.008991 1.22997,0 2.2873127,-0.755485 2.7483716,-1.822898 l 12.2941854,1.848552 c 0.295385,1.349611 1.505935,2.372187 2.939461,2.372187 1.595844,0 2.904456,-1.270009 2.992208,-2.845234 A 0.83916084,0.83916086 0 0 0 23.95,18.664764 0.83916084,0.83916086 0 0 0 23.932977,18.496932 c -0.08991,-1.573307 -1.397562,-2.841159 -2.991968,-2.841159 -0.03213,0 -0.0633,0.0036 -0.09495,0.0046 l -1.645235,-5.015545 c 0.785215,-0.50997 1.320839,-1.377662 1.375744,-2.365714 a 0.83916084,0.83916086 0 0 0 0.01678,-0.163996 0.83916084,0.83916086 0 0 0 -0.01702,-0.167832 C 20.486418,6.373979 19.178765,5.106127 17.58436,5.106127 c -1.213667,0 -2.266214,0.733666 -2.74046,1.777822 L 10.748316,5.800952 a 0.83916084,0.83916086 0 0 0 -0.0024,-0.01127 C 10.656254,4.216092 9.348601,2.948 7.754196,2.948 Z m 0,1.678321 c 0.744935,0 1.330669,0.585734 1.330669,1.33067 0,0.744935 -0.585734,1.330669 -1.330669,1.330669 -0.744935,0 -1.330669,-0.585734 -1.330669,-1.330669 0,-0.744936 0.585734,-1.33067 1.330669,-1.33067 z m 9.83017,2.157843 c 0.744935,0 1.330669,0.585734 1.330669,1.330669 0,0.744935 -0.585734,1.330669 -1.330669,1.330669 -0.744935,0 -1.33067,-0.585734 -1.33067,-1.330669 0,-0.744935 0.585735,-1.330669 1.33067,-1.330669 z m -7.225655,0.64927 4.253107,1.124476 c 0.216983,1.443836 1.471409,2.565914 2.972548,2.565914 l 0.0079,-4.8e-4 1.659141,5.057023 a 3.0420779,3.0420782 0 0 0 -1.128072,1.442158 L 5.9157143,15.787881 A 3.0236164,3.0236166 0 0 0 5.0077423,14.07839 L 7.487343,8.952795 c 0.08823,0.0079 0.176703,0.01367 0.266853,0.01367 1.115364,0 2.088312,-0.621459 2.604515,-1.532787 z m -0.0019,2.319441 A 0.5994006,0.59940062 0 0 0 9.79769,10.115873 l -1.426573,3.314925 a 0.5994006,0.59940062 0 0 0 0.452667,0.828371 l 5.832887,0.965036 a 0.5994006,0.59940062 0 0 0 0.671089,-0.416704 l 0.587653,-1.93007 a 0.5994006,0.59940062 0 0 0 -0.318402,-0.716883 l -4.993726,-2.35013 a 0.5994006,0.59940062 0 0 0 -0.246474,-0.05706 z m 0.297063,1.405714 3.963477,1.865335 -0.283397,0.931229 -4.559041,-0.754286 z m -7.694865,3.777423 c 0.7449351,0 1.3306693,0.585974 1.3306693,1.330909 0,0.744935 -0.5857342,1.33067 -1.3306693,1.33067 -0.7449351,0 -1.3306693,-0.585735 -1.3306693,-1.33067 0,-0.744935 0.5857342,-1.330669 1.3306693,-1.330669 z m 17.982018,2.397602 c 0.744935,0 1.330669,0.585975 1.330669,1.33091 0,0.744935 -0.585734,1.330669 -1.330669,1.330669 -0.744935,0 -1.330669,-0.585734 -1.330669,-1.330669 0,-0.744935 0.585734,-1.33067 1.330669,-1.33067 z"
     fill="currentColor"
     id="path10"
     style="stroke-width:0.23976" />
</svg>
