<svg
   xmlns:svg="http://www.w3.org/2000/svg"
   xmlns="http://www.w3.org/2000/svg"
   width="24px"
   height="24px"
   viewBox="0 0 24 23.999999"
   class="iconify iconify--gis"
   preserveAspectRatio="xMidYMid meet"
   version="1.1"
   id="svg58">
  <defs
     id="defs44" />
  <path
     d="m 7.7541958,2.948 c 1.5944056,0 2.6903842,1.089075 2.9703402,2.377192 v 0 l 4.598891,0.120151 c 0.474245,-1.044156 1.526793,-1.7778225 2.740459,-1.7778225 1.594406,0 2.902058,1.2678525 2.991968,2.8411585 0.0113,0.05523 0.017,0.111459 0.01702,0.167832 -1.98e-4,0.05508 -0.0058,0.110014 -0.01678,0.163996 -0.05491,0.988052 -0.59053,1.855745 -1.375744,2.365715 l 1.165714,6.933626 c 0.03165,-9.59e-4 0.06282,-0.0046 0.09495,-0.0046 1.594406,0 2.902058,1.267852 2.991968,2.841159 0.0113,0.05523 0.017,0.111458 0.01702,0.167832 -1.99e-4,0.05508 -0.0058,0.110014 -0.01678,0.163996 -0.08775,1.575224 -1.396364,2.845234 -2.992208,2.845234 -1.433526,0 -2.644076,-1.022577 -2.939461,-2.372187 L 5.7073626,17.932775 C 5.2463037,19.000188 4.188961,19.755672 2.958991,19.755672 1.307043,19.755672 -0.05,18.398629 -0.05,16.746681 c 0,-1.651948 1.357043,-3.008991 3.0087512,-3.00923 0.1863647,3.11e-4 0.3722842,0.01821 0.5552848,0.05347 L 5.9224276,8.334933 C 5.2091409,7.782765 4.7452048,6.921307 4.7452048,5.957471 c 0,-1.651949 1.357043,-3.0089915 3.008991,-3.0089915 z M 6.4235265,5.957471 c 0,0.744935 0.5857342,1.330669 1.3306693,1.330669 0.7449351,0 1.3306693,-0.585734 1.3306693,-1.330669 0,-0.744936 -0.5857342,-1.33067 -1.3306693,-1.33067 -0.7449351,0 -1.3306693,0.585734 -1.3306693,1.33067 z m 10.3096905,0.71928 c 0,0.744935 0.585734,1.33067 1.330669,1.33067 0.744935,0 1.330669,-0.585735 1.330669,-1.33067 0,-0.744935 -0.585734,-1.330669 -1.330669,-1.330669 -0.744935,0 -1.330669,0.585734 -1.330669,1.330669 z m -6.18422,0.352566 C 10.318222,8.08336 8.8695604,8.966462 7.7541958,8.966462 c -0.09015,0 -0.1786214,-0.0058 -0.2668531,-0.01367 L 5.0077423,14.55791 c 0.4818051,0.45494 0.8008162,1.055561 0.907972,1.709491 l 12.2076327,1.835124 c 0.219003,-0.585157 0.612871,-1.088689 1.128072,-1.442157 l -1.179621,-6.975105 -0.0079,4.79e-4 c -1.501139,0 -2.755564,-1.122078 -2.972547,-2.565914 l -4.542342,-0.09027 z m 0.05427,1.82206 4.034685,0.432048 c 0.269465,0.126702 0.405065,0.432007 0.318402,0.716883 l 0.371388,5.286713 c -0.08759,0.287506 -0.374557,0.465695 -0.671089,0.416703 L 8.8237662,14.738689 C 8.4396538,14.675111 8.2171453,14.267925 8.3710989,13.910318 L 9.7976723,9.156831 c 0.095845,-0.222847 0.3165607,-0.365953 0.5591207,-0.362517 0.08528,0.0013 0.169311,0.02072 0.246474,0.05706 z m -7.644276,6.564875 c -0.7449351,0 -1.3306693,0.585734 -1.3306693,1.330669 0,0.744935 0.5857342,1.330669 1.3306693,1.330669 0.7449351,0 1.3306693,-0.585734 1.3306693,-1.330669 0,-0.744935 -0.5857342,-1.330909 -1.3306693,-1.330909 z m 17.982018,2.397602 c -0.744935,0 -1.330669,0.585734 -1.330669,1.330669 0,0.744936 0.585734,1.33067 1.330669,1.33067 0.744935,0 1.330669,-0.585734 1.330669,-1.33067 0,-0.744935 -0.585734,-1.330909 -1.330669,-1.330909 z"
     fill="currentColor"
     id="path39"
     style="stroke-width:0.23976" />
</svg>
